<mxfile host="app.diagrams.net" modified="2024-08-19T02:54:20.623Z" agent="Mozilla/5.0 (Macintosh; Intel Mac OS X 10_15_7) AppleWebKit/537.36 (KHTML, like Gecko) Chrome/127.0.0.0 Safari/537.36" version="24.4.9" etag="CWIoPHMe_yCpzBsW78tk" type="github">
  <diagram name="第 1 页" id="d2yzdFLcojqh8NeYQtIH">
    <mxGraphModel>
      <root>
        <mxCell id="0" />
        <mxCell id="1" parent="0" />
      </root>
    </mxGraphModel>
  </diagram>
</mxfile>
